{
    "asset" : {
        "generator" : "Khronos glTF Blender I/O v1.7.33",
        "version" : "2.0"
    },
    "scene" : 0,
    "scenes" : [
        {
            "name" : "Scene",
            "nodes" : [
                0,
                1,
                2,
                3,
                4,
                5,
                6,
                7
            ]
        }
    ],
    "nodes" : [
        {
            "mesh" : 0,
            "name" : "area_light",
            "rotation" : [
                0.7071068286895752,
                0,
                0,
                0.7071068286895752
            ]
        },
        {
            "mesh" : 1,
            "name" : "back_wall",
            "rotation" : [
                0.7071068286895752,
                0,
                0,
                0.7071068286895752
            ]
        },
        {
            "mesh" : 2,
            "name" : "ceiling",
            "rotation" : [
                0.7071068286895752,
                0,
                0,
                0.7071068286895752
            ]
        },
        {
            "mesh" : 3,
            "name" : "floor",
            "rotation" : [
                0.7071068286895752,
                0,
                0,
                0.7071068286895752
            ]
        },
        {
            "mesh" : 4,
            "name" : "left_wall",
            "rotation" : [
                0.7071068286895752,
                0,
                0,
                0.7071068286895752
            ]
        },
        {
            "mesh" : 5,
            "name" : "right_wall",
            "rotation" : [
                0.7071068286895752,
                0,
                0,
                0.7071068286895752
            ]
        },
        {
            "mesh" : 6,
            "name" : "short_box",
            "rotation" : [
                0.7071068286895752,
                0,
                0,
                0.7071068286895752
            ]
        },
        {
            "mesh" : 7,
            "name" : "tall_box",
            "rotation" : [
                0.7071068286895752,
                0,
                0,
                0.7071068286895752
            ]
        }
    ],
    "materials" : [
        {
            "doubleSided" : true,
            "emissiveFactor" : [
                1,
                1,
                1
            ],
            "name" : "Light",
            "pbrMetallicRoughness" : {
                "metallicFactor" : 0
            }
        },
        {
            "doubleSided" : true,
            "name" : "Khaki",
            "pbrMetallicRoughness" : {
                "baseColorFactor" : [
                    0.800000011920929,
                    0.6593409776687622,
                    0.4395599961280823,
                    1
                ],
                "metallicFactor" : 0,
                "roughnessFactor" : 0.6732679605484009
            }
        },
        {
            "doubleSided" : true,
            "name" : "BloodyRed",
            "pbrMetallicRoughness" : {
                "baseColorFactor" : [
                    0.4449999928474426,
                    0,
                    0,
                    1
                ],
                "metallicFactor" : 0,
                "roughnessFactor" : 0.6732679605484009
            }
        },
        {
            "doubleSided" : true,
            "name" : "DarkGreen",
            "pbrMetallicRoughness" : {
                "baseColorFactor" : [
                    0,
                    0.3199999928474426,
                    0,
                    1
                ],
                "metallicFactor" : 0,
                "roughnessFactor" : 0.6732679605484009
            }
        },
        {
            "doubleSided" : true,
            "name" : "Mirror",
            "pbrMetallicRoughness" : {
                "baseColorFactor" : [
                    0.800000011920929,
                    0.6593409776687622,
                    0.4395599961280823,
                    1
                ],
                "metallicFactor" : 1,
                "roughnessFactor" : 0.07741302251815796
            }
        }
    ],
    "meshes" : [
        {
            "name" : "area_light",
            "primitives" : [
                {
                    "attributes" : {
                        "POSITION" : 0,
                        "NORMAL" : 1
                    },
                    "indices" : 2,
                    "material" : 0
                }
            ]
        },
        {
            "name" : "back_wall",
            "primitives" : [
                {
                    "attributes" : {
                        "POSITION" : 3,
                        "NORMAL" : 4
                    },
                    "indices" : 5,
                    "material" : 1
                }
            ]
        },
        {
            "name" : "ceiling",
            "primitives" : [
                {
                    "attributes" : {
                        "POSITION" : 6,
                        "NORMAL" : 7
                    },
                    "indices" : 5,
                    "material" : 1
                }
            ]
        },
        {
            "name" : "floor",
            "primitives" : [
                {
                    "attributes" : {
                        "POSITION" : 8,
                        "NORMAL" : 9
                    },
                    "indices" : 5,
                    "material" : 1
                }
            ]
        },
        {
            "name" : "left_wall",
            "primitives" : [
                {
                    "attributes" : {
                        "POSITION" : 10,
                        "NORMAL" : 11
                    },
                    "indices" : 12,
                    "material" : 2
                }
            ]
        },
        {
            "name" : "right_wall",
            "primitives" : [
                {
                    "attributes" : {
                        "POSITION" : 13,
                        "NORMAL" : 14
                    },
                    "indices" : 2,
                    "material" : 3
                }
            ]
        },
        {
            "name" : "short_box",
            "primitives" : [
                {
                    "attributes" : {
                        "POSITION" : 15,
                        "NORMAL" : 16
                    },
                    "indices" : 17,
                    "material" : 1
                }
            ]
        },
        {
            "name" : "tall_box",
            "primitives" : [
                {
                    "attributes" : {
                        "POSITION" : 18,
                        "NORMAL" : 19
                    },
                    "indices" : 20,
                    "material" : 4
                }
            ]
        }
    ],
    "accessors" : [
        {
            "bufferView" : 0,
            "componentType" : 5126,
            "count" : 6,
            "max" : [
                0.4159890115261078,
                -2.517967939376831,
                -5.318497180938721
            ],
            "min" : [
                -0.8840109705924988,
                -3.5679678916931152,
                -5.319334030151367
            ],
            "type" : "VEC3"
        },
        {
            "bufferView" : 1,
            "componentType" : 5126,
            "count" : 6,
            "type" : "VEC3"
        },
        {
            "bufferView" : 2,
            "componentType" : 5123,
            "count" : 6,
            "type" : "SCALAR"
        },
        {
            "bufferView" : 3,
            "componentType" : 5126,
            "count" : 6,
            "max" : [
                2.5459890365600586,
                -5.835597991943359,
                0.16268600523471832
            ],
            "min" : [
                -3.0140109062194824,
                -5.839966773986816,
                -5.325313091278076
            ],
            "type" : "VEC3"
        },
        {
            "bufferView" : 4,
            "componentType" : 5126,
            "count" : 6,
            "type" : "VEC3"
        },
        {
            "bufferView" : 5,
            "componentType" : 5123,
            "count" : 6,
            "type" : "SCALAR"
        },
        {
            "bufferView" : 6,
            "componentType" : 5126,
            "count" : 6,
            "max" : [
                2.5459890365600586,
                -0.24796900153160095,
                -5.325313091278076
            ],
            "min" : [
                -3.0140109062194824,
                -5.839968204498291,
                -5.3297648429870605
            ],
            "type" : "VEC3"
        },
        {
            "bufferView" : 7,
            "componentType" : 5126,
            "count" : 6,
            "type" : "VEC3"
        },
        {
            "bufferView" : 8,
            "componentType" : 5126,
            "count" : 6,
            "max" : [
                2.5459890365600586,
                -0.24359899759292603,
                0.16268600523471832
            ],
            "min" : [
                -2.982011079788208,
                -5.835597991943359,
                0.15823300182819366
            ],
            "type" : "VEC3"
        },
        {
            "bufferView" : 9,
            "componentType" : 5126,
            "count" : 6,
            "type" : "VEC3"
        },
        {
            "bufferView" : 10,
            "componentType" : 5126,
            "count" : 4,
            "max" : [
                -2.9500110149383545,
                -0.24359899759292603,
                0.16268600523471832
            ],
            "min" : [
                -3.0140109062194824,
                -5.839968204498291,
                -5.3297648429870605
            ],
            "type" : "VEC3"
        },
        {
            "bufferView" : 11,
            "componentType" : 5126,
            "count" : 4,
            "type" : "VEC3"
        },
        {
            "bufferView" : 12,
            "componentType" : 5123,
            "count" : 6,
            "type" : "SCALAR"
        },
        {
            "bufferView" : 13,
            "componentType" : 5126,
            "count" : 6,
            "max" : [
                2.5459890365600586,
                -0.24359899759292603,
                0.16268600523471832
            ],
            "min" : [
                2.5459890365600586,
                -5.839968204498291,
                -5.3297648429870605
            ],
            "type" : "VEC3"
        },
        {
            "bufferView" : 14,
            "componentType" : 5126,
            "count" : 6,
            "type" : "VEC3"
        },
        {
            "bufferView" : 15,
            "componentType" : 5126,
            "count" : 26,
            "max" : [
                1.7259889841079712,
                -0.8935989737510681,
                0.16039900481700897
            ],
            "min" : [
                -0.35401099920272827,
                -2.964911937713623,
                -1.4912489652633667
            ],
            "type" : "VEC3"
        },
        {
            "bufferView" : 16,
            "componentType" : 5126,
            "count" : 26,
            "type" : "VEC3"
        },
        {
            "bufferView" : 17,
            "componentType" : 5123,
            "count" : 30,
            "type" : "SCALAR"
        },
        {
            "bufferView" : 18,
            "componentType" : 5126,
            "count" : 28,
            "max" : [
                -0.10401099920272827,
                -2.7135980129241943,
                0.1618639975786209
            ],
            "min" : [
                -2.174010992050171,
                -4.806225776672363,
                -3.139799118041992
            ],
            "type" : "VEC3"
        },
        {
            "bufferView" : 19,
            "componentType" : 5126,
            "count" : 28,
            "type" : "VEC3"
        },
        {
            "bufferView" : 20,
            "componentType" : 5123,
            "count" : 30,
            "type" : "SCALAR"
        }
    ],
    "bufferViews" : [
        {
            "buffer" : 0,
            "byteLength" : 72,
            "byteOffset" : 0
        },
        {
            "buffer" : 0,
            "byteLength" : 72,
            "byteOffset" : 72
        },
        {
            "buffer" : 0,
            "byteLength" : 12,
            "byteOffset" : 144
        },
        {
            "buffer" : 0,
            "byteLength" : 72,
            "byteOffset" : 156
        },
        {
            "buffer" : 0,
            "byteLength" : 72,
            "byteOffset" : 228
        },
        {
            "buffer" : 0,
            "byteLength" : 12,
            "byteOffset" : 300
        },
        {
            "buffer" : 0,
            "byteLength" : 72,
            "byteOffset" : 312
        },
        {
            "buffer" : 0,
            "byteLength" : 72,
            "byteOffset" : 384
        },
        {
            "buffer" : 0,
            "byteLength" : 72,
            "byteOffset" : 456
        },
        {
            "buffer" : 0,
            "byteLength" : 72,
            "byteOffset" : 528
        },
        {
            "buffer" : 0,
            "byteLength" : 48,
            "byteOffset" : 600
        },
        {
            "buffer" : 0,
            "byteLength" : 48,
            "byteOffset" : 648
        },
        {
            "buffer" : 0,
            "byteLength" : 12,
            "byteOffset" : 696
        },
        {
            "buffer" : 0,
            "byteLength" : 72,
            "byteOffset" : 708
        },
        {
            "buffer" : 0,
            "byteLength" : 72,
            "byteOffset" : 780
        },
        {
            "buffer" : 0,
            "byteLength" : 312,
            "byteOffset" : 852
        },
        {
            "buffer" : 0,
            "byteLength" : 312,
            "byteOffset" : 1164
        },
        {
            "buffer" : 0,
            "byteLength" : 60,
            "byteOffset" : 1476
        },
        {
            "buffer" : 0,
            "byteLength" : 336,
            "byteOffset" : 1536
        },
        {
            "buffer" : 0,
            "byteLength" : 336,
            "byteOffset" : 1872
        },
        {
            "buffer" : 0,
            "byteLength" : 60,
            "byteOffset" : 2208
        }
    ],
    "buffers" : [
        {
            "byteLength" : 2268,
            "uri" : "data:application/octet-stream;base64,"
        }
    ]
}
