{
    "asset" : {
        "generator" : "Khronos glTF Blender I/O v1.6.16",
        "version" : "2.0"
    },
    "scene" : 0,
    "scenes" : [
        {
            "name" : "Scene",
            "nodes" : [
                0,
                1,
                2,
                3,
                4,
                5,
                6
            ]
        }
    ],
    "nodes" : [
        {
            "mesh" : 0,
            "name" : "Cube",
            "translation" : [
                0,
                0.04746778681874275,
                0
            ]
        },
        {
            "name" : "Light",
            "rotation" : [
                0.16907575726509094,
                0.7558803558349609,
                -0.27217137813568115,
                0.570947527885437
            ],
            "translation" : [
                4.076245307922363,
                5.903861999511719,
                -1.0054539442062378
            ]
        },
        {
            "name" : "Camera",
            "rotation" : [
                0.483536034822464,
                0.33687159419059753,
                -0.20870360732078552,
                0.7804827094078064
            ],
            "translation" : [
                7.358891487121582,
                4.958309173583984,
                6.925790786743164
            ]
        },
        {
            "name" : "Point",
            "scale" : [
                4.781206130981445,
                4.781206130981445,
                4.781206130981445
            ],
            "translation" : [
                -0.05391740798950195,
                0.9950177669525146,
                -0.03902740776538849
            ]
        },
        {
            "mesh" : 1,
            "name" : "Cube.001",
            "rotation" : [
                0,
                0.11667408794164658,
                0,
                0.9931702613830566
            ],
            "scale" : [
                0.32139652967453003,
                0.5385193824768066,
                0.32139652967453003
            ],
            "translation" : [
                -0.35744762420654297,
                -0.40853872895240784,
                0.39974233508110046
            ]
        },
        {
            "mesh" : 2,
            "name" : "Cube.002",
            "rotation" : [
                0,
                -0.25394538044929504,
                0,
                0.9672185778617859
            ],
            "scale" : [
                0.21619223058223724,
                0.2907804548740387,
                0.21619223058223724
            ],
            "translation" : [
                0.3146964907646179,
                -0.6591687202453613,
                -0.3606918156147003
            ]
        },
        {
            "mesh" : 3,
            "name" : "Sphere",
            "scale" : [
                0.3466624617576599,
                0.3466624617576599,
                0.3466624617576599
            ],
            "translation" : [
                -0.09802055358886719,
                0.35285601019859314,
                -0.33003583550453186
            ]
        }
    ],
    "materials" : [
        {
            "doubleSided" : true,
            "name" : "Material",
            "pbrMetallicRoughness" : {
                "baseColorFactor" : [
                    0.800000011920929,
                    0.800000011920929,
                    0.800000011920929,
                    1
                ],
                "metallicFactor" : 0,
                "roughnessFactor" : 0.4000000059604645
            }
        },
        {
            "doubleSided" : true,
            "name" : "Red",
            "pbrMetallicRoughness" : {
                "baseColorFactor" : [
                    0.8000000715255737,
                    0,
                    0.0015222047222778201,
                    1
                ],
                "metallicFactor" : 0,
                "roughnessFactor" : 0.5
            }
        },
        {
            "doubleSided" : true,
            "name" : "Green",
            "pbrMetallicRoughness" : {
                "baseColorFactor" : [
                    0,
                    0.8000000715255737,
                    0.004086160100996494,
                    1
                ],
                "metallicFactor" : 0,
                "roughnessFactor" : 0.5
            }
        },
        {
            "doubleSided" : true,
            "name" : "Material.001",
            "pbrMetallicRoughness" : {
                "baseColorFactor" : [
                    0.058864057064056396,
                    0.2559680938720703,
                    0.8000000715255737,
                    1
                ],
                "metallicFactor" : 0,
                "roughnessFactor" : 0.5
            }
        },
        {
            "doubleSided" : true,
            "name" : "Material.002",
            "pbrMetallicRoughness" : {
                "baseColorFactor" : [
                    0.800000011920929,
                    0.800000011920929,
                    0.800000011920929,
                    1
                ],
                "metallicFactor" : 0,
                "roughnessFactor" : 0.5
            }
        },
        {
            "doubleSided" : true,
            "name" : "Material.002",
            "pbrMetallicRoughness" : {
                "baseColorFactor" : [
                    0.2,
                    0.2,
                    0.2,
                    1
                ],
                "metallicFactor" : 0,
                "roughnessFactor" : 0.5
            }
        }
    ],
    "meshes" : [
        {
            "name" : "Cube",
            "primitives" : [
                {
                    "attributes" : {
                        "POSITION" : 0,
                        "NORMAL" : 1,
                        "TEXCOORD_0" : 2
                    },
                    "indices" : 3,
                    "material" : 0
                },
                {
                    "attributes" : {
                        "POSITION" : 4,
                        "NORMAL" : 5,
                        "TEXCOORD_0" : 6
                    },
                    "indices" : 7,
                    "material" : 1
                },
                {
                    "attributes" : {
                        "POSITION" : 8,
                        "NORMAL" : 9,
                        "TEXCOORD_0" : 10
                    },
                    "indices" : 11,
                    "material" : 2
                }
            ]
        },
        {
            "name" : "Cube.001",
            "primitives" : [
                {
                    "attributes" : {
                        "POSITION" : 12,
                        "NORMAL" : 13,
                        "TEXCOORD_0" : 14
                    },
                    "indices" : 15,
                    "material" : 3
                }
            ]
        },
        {
            "name" : "Cube.002",
            "primitives" : [
                {
                    "attributes" : {
                        "POSITION" : 16,
                        "NORMAL" : 17,
                        "TEXCOORD_0" : 18
                    },
                    "indices" : 15,
                    "material" : 4
                }
            ]
        },
        {
            "name" : "Sphere",
            "primitives" : [
                {
                    "attributes" : {
                        "POSITION" : 19,
                        "NORMAL" : 20,
                        "TEXCOORD_0" : 21
                    },
                    "indices" : 22,
                    "material" : 5
                }
            ]
        }
    ],
    "accessors" : [
        {
            "bufferView" : 0,
            "componentType" : 5126,
            "count" : 12,
            "max" : [
                1,
                1,
                1
            ],
            "min" : [
                -1,
                -1,
                -1
            ],
            "type" : "VEC3"
        },
        {
            "bufferView" : 1,
            "componentType" : 5126,
            "count" : 12,
            "type" : "VEC3"
        },
        {
            "bufferView" : 2,
            "componentType" : 5126,
            "count" : 12,
            "type" : "VEC2"
        },
        {
            "bufferView" : 3,
            "componentType" : 5123,
            "count" : 18,
            "type" : "SCALAR"
        },
        {
            "bufferView" : 4,
            "componentType" : 5126,
            "count" : 4,
            "max" : [
                1,
                1,
                1
            ],
            "min" : [
                -1,
                -1,
                1
            ],
            "type" : "VEC3"
        },
        {
            "bufferView" : 5,
            "componentType" : 5126,
            "count" : 4,
            "type" : "VEC3"
        },
        {
            "bufferView" : 6,
            "componentType" : 5126,
            "count" : 4,
            "type" : "VEC2"
        },
        {
            "bufferView" : 7,
            "componentType" : 5123,
            "count" : 6,
            "type" : "SCALAR"
        },
        {
            "bufferView" : 8,
            "componentType" : 5126,
            "count" : 4,
            "max" : [
                1,
                1,
                -1
            ],
            "min" : [
                -1,
                -1,
                -1
            ],
            "type" : "VEC3"
        },
        {
            "bufferView" : 9,
            "componentType" : 5126,
            "count" : 4,
            "type" : "VEC3"
        },
        {
            "bufferView" : 10,
            "componentType" : 5126,
            "count" : 4,
            "type" : "VEC2"
        },
        {
            "bufferView" : 11,
            "componentType" : 5123,
            "count" : 6,
            "type" : "SCALAR"
        },
        {
            "bufferView" : 12,
            "componentType" : 5126,
            "count" : 24,
            "max" : [
                1,
                1,
                1
            ],
            "min" : [
                -1,
                -1,
                -1
            ],
            "type" : "VEC3"
        },
        {
            "bufferView" : 13,
            "componentType" : 5126,
            "count" : 24,
            "type" : "VEC3"
        },
        {
            "bufferView" : 14,
            "componentType" : 5126,
            "count" : 24,
            "type" : "VEC2"
        },
        {
            "bufferView" : 15,
            "componentType" : 5123,
            "count" : 36,
            "type" : "SCALAR"
        },
        {
            "bufferView" : 16,
            "componentType" : 5126,
            "count" : 24,
            "max" : [
                1,
                1,
                1
            ],
            "min" : [
                -1,
                -1,
                -1
            ],
            "type" : "VEC3"
        },
        {
            "bufferView" : 17,
            "componentType" : 5126,
            "count" : 24,
            "type" : "VEC3"
        },
        {
            "bufferView" : 18,
            "componentType" : 5126,
            "count" : 24,
            "type" : "VEC2"
        },
        {
            "bufferView" : 19,
            "componentType" : 5126,
            "count" : 61,
            "max" : [
                1.0000001192092896,
                1,
                1
            ],
            "min" : [
                -0.9999998211860657,
                -1,
                -1
            ],
            "type" : "VEC3"
        },
        {
            "bufferView" : 20,
            "componentType" : 5126,
            "count" : 61,
            "type" : "VEC3"
        },
        {
            "bufferView" : 21,
            "componentType" : 5126,
            "count" : 61,
            "type" : "VEC2"
        },
        {
            "bufferView" : 22,
            "componentType" : 5123,
            "count" : 240,
            "type" : "SCALAR"
        }
    ],
    "bufferViews" : [
        {
            "buffer" : 0,
            "byteLength" : 144,
            "byteOffset" : 0
        },
        {
            "buffer" : 0,
            "byteLength" : 144,
            "byteOffset" : 144
        },
        {
            "buffer" : 0,
            "byteLength" : 96,
            "byteOffset" : 288
        },
        {
            "buffer" : 0,
            "byteLength" : 36,
            "byteOffset" : 384
        },
        {
            "buffer" : 0,
            "byteLength" : 48,
            "byteOffset" : 420
        },
        {
            "buffer" : 0,
            "byteLength" : 48,
            "byteOffset" : 468
        },
        {
            "buffer" : 0,
            "byteLength" : 32,
            "byteOffset" : 516
        },
        {
            "buffer" : 0,
            "byteLength" : 12,
            "byteOffset" : 548
        },
        {
            "buffer" : 0,
            "byteLength" : 48,
            "byteOffset" : 560
        },
        {
            "buffer" : 0,
            "byteLength" : 48,
            "byteOffset" : 608
        },
        {
            "buffer" : 0,
            "byteLength" : 32,
            "byteOffset" : 656
        },
        {
            "buffer" : 0,
            "byteLength" : 12,
            "byteOffset" : 688
        },
        {
            "buffer" : 0,
            "byteLength" : 288,
            "byteOffset" : 700
        },
        {
            "buffer" : 0,
            "byteLength" : 288,
            "byteOffset" : 988
        },
        {
            "buffer" : 0,
            "byteLength" : 192,
            "byteOffset" : 1276
        },
        {
            "buffer" : 0,
            "byteLength" : 72,
            "byteOffset" : 1468
        },
        {
            "buffer" : 0,
            "byteLength" : 288,
            "byteOffset" : 1540
        },
        {
            "buffer" : 0,
            "byteLength" : 288,
            "byteOffset" : 1828
        },
        {
            "buffer" : 0,
            "byteLength" : 192,
            "byteOffset" : 2116
        },
        {
            "buffer" : 0,
            "byteLength" : 732,
            "byteOffset" : 2308
        },
        {
            "buffer" : 0,
            "byteLength" : 732,
            "byteOffset" : 3040
        },
        {
            "buffer" : 0,
            "byteLength" : 488,
            "byteOffset" : 3772
        },
        {
            "buffer" : 0,
            "byteLength" : 480,
            "byteOffset" : 4260
        }
    ],
    "buffers" : [
        {
            "byteLength" : 4740,
            "uri" : "data:application/octet-stream;base64,"
        }
    ]
}
