{
    "asset" : {
        "generator" : "Khronos glTF Blender I/O v1.6.16",
        "version" : "2.0"
    },
    "scene" : 0,
    "scenes" : [
        {
            "name" : "Scene",
            "nodes" : [
                0,
                1,
                2,
                3,
                4,
                5
            ]
        }
    ],
    "nodes" : [
        {
            "name" : "Light",
            "rotation" : [
                0.16907575726509094,
                0.7558803558349609,
                -0.27217137813568115,
                0.570947527885437
            ],
            "translation" : [
                4.076245307922363,
                5.903861999511719,
                -1.0054539442062378
            ]
        },
        {
            "name" : "Camera",
            "rotation" : [
                0.483536034822464,
                0.33687159419059753,
                -0.20870360732078552,
                0.7804827094078064
            ],
            "translation" : [
                7.358891487121582,
                4.958309173583984,
                6.925790786743164
            ]
        },
        {
            "mesh" : 0,
            "name" : "Plane",
            "scale" : [
                5.2655863761901855,
                5.2655863761901855,
                5.2655863761901855
            ]
        },
        {
            "mesh" : 1,
            "name" : "Cube",
            "translation" : [
                -1.0345722436904907,
                6.306193828582764,
                -1.8592036962509155
            ]
        },
        {
            "mesh" : 2,
            "name" : "Cube.001",
            "rotation" : [
                -0.11716967821121216,
                -0.04376703500747681,
                0.35040953755378723,
                0.9282073378562927
            ],
            "translation" : [
                0.6262184381484985,
                1.8138840198516846,
                -0.5981563329696655
            ]
        },
        {
            "mesh" : 3,
            "name" : "Cube.002",
            "translation" : [
                -0.720690131187439,
                9.554988861083984,
                -0.4966491460800171
            ]
        }
    ],
    "animations" : [
        {
            "channels" : [
                {
                    "sampler" : 0,
                    "target" : {
                        "node" : 2,
                        "path" : "translation"
                    }
                },
                {
                    "sampler" : 1,
                    "target" : {
                        "node" : 2,
                        "path" : "rotation"
                    }
                }
            ],
            "name" : "PlaneAction",
            "samplers" : [
                {
                    "input" : 18,
                    "interpolation" : "LINEAR",
                    "output" : 19
                },
                {
                    "input" : 18,
                    "interpolation" : "LINEAR",
                    "output" : 20
                }
            ]
        },
        {
            "channels" : [
                {
                    "sampler" : 0,
                    "target" : {
                        "node" : 3,
                        "path" : "translation"
                    }
                },
                {
                    "sampler" : 1,
                    "target" : {
                        "node" : 3,
                        "path" : "rotation"
                    }
                }
            ],
            "name" : "CubeAction",
            "samplers" : [
                {
                    "input" : 18,
                    "interpolation" : "LINEAR",
                    "output" : 21
                },
                {
                    "input" : 18,
                    "interpolation" : "LINEAR",
                    "output" : 22
                }
            ]
        },
        {
            "channels" : [
                {
                    "sampler" : 0,
                    "target" : {
                        "node" : 4,
                        "path" : "translation"
                    }
                },
                {
                    "sampler" : 1,
                    "target" : {
                        "node" : 4,
                        "path" : "rotation"
                    }
                }
            ],
            "name" : "Cube.001Action",
            "samplers" : [
                {
                    "input" : 18,
                    "interpolation" : "LINEAR",
                    "output" : 23
                },
                {
                    "input" : 18,
                    "interpolation" : "LINEAR",
                    "output" : 24
                }
            ]
        },
        {
            "channels" : [
                {
                    "sampler" : 0,
                    "target" : {
                        "node" : 5,
                        "path" : "translation"
                    }
                },
                {
                    "sampler" : 1,
                    "target" : {
                        "node" : 5,
                        "path" : "rotation"
                    }
                }
            ],
            "name" : "Cube.002Action",
            "samplers" : [
                {
                    "input" : 18,
                    "interpolation" : "LINEAR",
                    "output" : 25
                },
                {
                    "input" : 18,
                    "interpolation" : "LINEAR",
                    "output" : 26
                }
            ]
        }
    ],
    "meshes" : [
        {
            "name" : "Plane",
            "primitives" : [
                {
                    "attributes" : {
                        "POSITION" : 0,
                        "NORMAL" : 1,
                        "TANGENT" : 2,
                        "TEXCOORD_0" : 3
                    },
                    "indices" : 4
                }
            ]
        },
        {
            "name" : "Cube.001",
            "primitives" : [
                {
                    "attributes" : {
                        "POSITION" : 5,
                        "NORMAL" : 6,
                        "TANGENT" : 7,
                        "TEXCOORD_0" : 8
                    },
                    "indices" : 9
                }
            ]
        },
        {
            "name" : "Cube.002",
            "primitives" : [
                {
                    "attributes" : {
                        "POSITION" : 10,
                        "NORMAL" : 11,
                        "TANGENT" : 12,
                        "TEXCOORD_0" : 13
                    },
                    "indices" : 9
                }
            ]
        },
        {
            "name" : "Cube.003",
            "primitives" : [
                {
                    "attributes" : {
                        "POSITION" : 14,
                        "NORMAL" : 15,
                        "TANGENT" : 16,
                        "TEXCOORD_0" : 17
                    },
                    "indices" : 9
                }
            ]
        }
    ],
    "accessors" : [
        {
            "bufferView" : 0,
            "componentType" : 5126,
            "count" : 4,
            "max" : [
                1,
                0,
                1
            ],
            "min" : [
                -1,
                0,
                -1
            ],
            "type" : "VEC3"
        },
        {
            "bufferView" : 1,
            "componentType" : 5126,
            "count" : 4,
            "type" : "VEC3"
        },
        {
            "bufferView" : 2,
            "componentType" : 5126,
            "count" : 4,
            "type" : "VEC4"
        },
        {
            "bufferView" : 3,
            "componentType" : 5126,
            "count" : 4,
            "type" : "VEC2"
        },
        {
            "bufferView" : 4,
            "componentType" : 5123,
            "count" : 6,
            "type" : "SCALAR"
        },
        {
            "bufferView" : 5,
            "componentType" : 5126,
            "count" : 24,
            "max" : [
                1,
                1,
                1
            ],
            "min" : [
                -1,
                -1,
                -1
            ],
            "type" : "VEC3"
        },
        {
            "bufferView" : 6,
            "componentType" : 5126,
            "count" : 24,
            "type" : "VEC3"
        },
        {
            "bufferView" : 7,
            "componentType" : 5126,
            "count" : 24,
            "type" : "VEC4"
        },
        {
            "bufferView" : 8,
            "componentType" : 5126,
            "count" : 24,
            "type" : "VEC2"
        },
        {
            "bufferView" : 9,
            "componentType" : 5123,
            "count" : 36,
            "type" : "SCALAR"
        },
        {
            "bufferView" : 10,
            "componentType" : 5126,
            "count" : 24,
            "max" : [
                1,
                1,
                1
            ],
            "min" : [
                -1,
                -1,
                -1
            ],
            "type" : "VEC3"
        },
        {
            "bufferView" : 11,
            "componentType" : 5126,
            "count" : 24,
            "type" : "VEC3"
        },
        {
            "bufferView" : 12,
            "componentType" : 5126,
            "count" : 24,
            "type" : "VEC4"
        },
        {
            "bufferView" : 13,
            "componentType" : 5126,
            "count" : 24,
            "type" : "VEC2"
        },
        {
            "bufferView" : 14,
            "componentType" : 5126,
            "count" : 24,
            "max" : [
                1,
                1,
                1
            ],
            "min" : [
                -1,
                -1,
                -1
            ],
            "type" : "VEC3"
        },
        {
            "bufferView" : 15,
            "componentType" : 5126,
            "count" : 24,
            "type" : "VEC3"
        },
        {
            "bufferView" : 16,
            "componentType" : 5126,
            "count" : 24,
            "type" : "VEC4"
        },
        {
            "bufferView" : 17,
            "componentType" : 5126,
            "count" : 24,
            "type" : "VEC2"
        },
        {
            "bufferView" : 18,
            "componentType" : 5126,
            "count" : 120,
            "max" : [
                5
            ],
            "min" : [
                0.041666666666666664
            ],
            "type" : "SCALAR"
        },
        {
            "bufferView" : 19,
            "componentType" : 5126,
            "count" : 120,
            "type" : "VEC3"
        },
        {
            "bufferView" : 20,
            "componentType" : 5126,
            "count" : 120,
            "type" : "VEC4"
        },
        {
            "bufferView" : 21,
            "componentType" : 5126,
            "count" : 120,
            "type" : "VEC3"
        },
        {
            "bufferView" : 22,
            "componentType" : 5126,
            "count" : 120,
            "type" : "VEC4"
        },
        {
            "bufferView" : 23,
            "componentType" : 5126,
            "count" : 120,
            "type" : "VEC3"
        },
        {
            "bufferView" : 24,
            "componentType" : 5126,
            "count" : 120,
            "type" : "VEC4"
        },
        {
            "bufferView" : 25,
            "componentType" : 5126,
            "count" : 120,
            "type" : "VEC3"
        },
        {
            "bufferView" : 26,
            "componentType" : 5126,
            "count" : 120,
            "type" : "VEC4"
        }
    ],
    "bufferViews" : [
        {
            "buffer" : 0,
            "byteLength" : 48,
            "byteOffset" : 0
        },
        {
            "buffer" : 0,
            "byteLength" : 48,
            "byteOffset" : 48
        },
        {
            "buffer" : 0,
            "byteLength" : 64,
            "byteOffset" : 96
        },
        {
            "buffer" : 0,
            "byteLength" : 32,
            "byteOffset" : 160
        },
        {
            "buffer" : 0,
            "byteLength" : 12,
            "byteOffset" : 192
        },
        {
            "buffer" : 0,
            "byteLength" : 288,
            "byteOffset" : 204
        },
        {
            "buffer" : 0,
            "byteLength" : 288,
            "byteOffset" : 492
        },
        {
            "buffer" : 0,
            "byteLength" : 384,
            "byteOffset" : 780
        },
        {
            "buffer" : 0,
            "byteLength" : 192,
            "byteOffset" : 1164
        },
        {
            "buffer" : 0,
            "byteLength" : 72,
            "byteOffset" : 1356
        },
        {
            "buffer" : 0,
            "byteLength" : 288,
            "byteOffset" : 1428
        },
        {
            "buffer" : 0,
            "byteLength" : 288,
            "byteOffset" : 1716
        },
        {
            "buffer" : 0,
            "byteLength" : 384,
            "byteOffset" : 2004
        },
        {
            "buffer" : 0,
            "byteLength" : 192,
            "byteOffset" : 2388
        },
        {
            "buffer" : 0,
            "byteLength" : 288,
            "byteOffset" : 2580
        },
        {
            "buffer" : 0,
            "byteLength" : 288,
            "byteOffset" : 2868
        },
        {
            "buffer" : 0,
            "byteLength" : 384,
            "byteOffset" : 3156
        },
        {
            "buffer" : 0,
            "byteLength" : 192,
            "byteOffset" : 3540
        },
        {
            "buffer" : 0,
            "byteLength" : 480,
            "byteOffset" : 3732
        },
        {
            "buffer" : 0,
            "byteLength" : 1440,
            "byteOffset" : 4212
        },
        {
            "buffer" : 0,
            "byteLength" : 1920,
            "byteOffset" : 5652
        },
        {
            "buffer" : 0,
            "byteLength" : 1440,
            "byteOffset" : 7572
        },
        {
            "buffer" : 0,
            "byteLength" : 1920,
            "byteOffset" : 9012
        },
        {
            "buffer" : 0,
            "byteLength" : 1440,
            "byteOffset" : 10932
        },
        {
            "buffer" : 0,
            "byteLength" : 1920,
            "byteOffset" : 12372
        },
        {
            "buffer" : 0,
            "byteLength" : 1440,
            "byteOffset" : 14292
        },
        {
            "buffer" : 0,
            "byteLength" : 1920,
            "byteOffset" : 15732
        }
    ],
    "buffers" : [
        {
            "byteLength" : 17652,
            "uri" : "data:application/octet-stream;base64,"
        }
    ]
}
