{
    "asset" : {
        "generator" : "Khronos glTF Blender I/O v1.7.33",
        "version" : "2.0"
    },
    "scene" : 0,
    "scenes" : [
        {
            "name" : "Scene",
            "nodes" : [
                0,
                1,
                2,
                3
            ]
        }
    ],
    "nodes" : [
        {
            "mesh" : 0,
            "name" : "teapot",
            "rotation" : [
                0.7071068286895752,
                0,
                0,
                0.7071068286895752
            ]
        },
        {
            "mesh" : 1,
            "name" : "teapot.001",
            "rotation" : [
                0.7071068286895752,
                0,
                0,
                0.7071068286895752
            ],
            "translation" : [
                0.029390811920166016,
                -0.058781616389751434,
                4.05593204498291
            ]
        },
        {
            "mesh" : 2,
            "name" : "teapot.002",
            "rotation" : [
                0.7071068286895752,
                0,
                0,
                0.7071068286895752
            ],
            "translation" : [
                -6.480673789978027,
                -0.058781616389751434,
                4.01184606552124
            ]
        },
        {
            "mesh" : 3,
            "name" : "teapot.003",
            "rotation" : [
                0.7071068286895752,
                0,
                0,
                0.7071068286895752
            ],
            "translation" : [
                -6.451282978057861,
                -0.058781616389751434,
                -0.08817195892333984
            ]
        }
    ],
    "materials" : [
        {
            "doubleSided" : true,
            "name" : "Default OBJ.002",
            "pbrMetallicRoughness" : {
                "baseColorFactor" : [
                    0.8000000715255737,
                    0.7690830826759338,
                    0.26082175970077515,
                    1
                ],
                "roughnessFactor" : 0.5
            }
        },
        {
            "doubleSided" : true,
            "name" : "Default OBJ",
            "pbrMetallicRoughness" : {
                "baseColorFactor" : [
                    0.8000000715255737,
                    0.7690830826759338,
                    0.26082175970077515,
                    1
                ],
                "metallicFactor" : 0,
                "roughnessFactor" : 0.5
            }
        },
        {
            "doubleSided" : true,
            "name" : "Default OBJ.001",
            "pbrMetallicRoughness" : {
                "baseColorFactor" : [
                    0.8000000715255737,
                    0.7690830826759338,
                    0.26082175970077515,
                    1
                ],
                "metallicFactor" : 0,
                "roughnessFactor" : 0.03367877006530762
            }
        },
        {
            "doubleSided" : true,
            "name" : "Default OBJ.003",
            "pbrMetallicRoughness" : {
                "baseColorFactor" : [
                    0.8000000715255737,
                    0.7690830826759338,
                    0.26082175970077515,
                    1
                ],
                "roughnessFactor" : 0.03400000184774399
            }
        }
    ],
    "meshes" : [
        {
            "name" : "teapot",
            "primitives" : [
                {
                    "attributes" : {
                        "POSITION" : 0,
                        "NORMAL" : 1
                    },
                    "indices" : 2,
                    "material" : 0
                }
            ]
        },
        {
            "name" : "teapot.001",
            "primitives" : [
                {
                    "attributes" : {
                        "POSITION" : 3,
                        "NORMAL" : 4
                    },
                    "indices" : 2,
                    "material" : 1
                }
            ]
        },
        {
            "name" : "teapot.002",
            "primitives" : [
                {
                    "attributes" : {
                        "POSITION" : 5,
                        "NORMAL" : 6
                    },
                    "indices" : 2,
                    "material" : 2
                }
            ]
        },
        {
            "name" : "teapot.003",
            "primitives" : [
                {
                    "attributes" : {
                        "POSITION" : 7,
                        "NORMAL" : 8
                    },
                    "indices" : 2,
                    "material" : 3
                }
            ]
        }
    ],
    "accessors" : [
        {
            "bufferView" : 0,
            "componentType" : 5126,
            "count" : 3231,
            "max" : [
                3.4281249046325684,
                2,
                0
            ],
            "min" : [
                -3,
                -2,
                -3.1500000953674316
            ],
            "type" : "VEC3"
        },
        {
            "bufferView" : 1,
            "componentType" : 5126,
            "count" : 3231,
            "type" : "VEC3"
        },
        {
            "bufferView" : 2,
            "componentType" : 5123,
            "count" : 18900,
            "type" : "SCALAR"
        },
        {
            "bufferView" : 3,
            "componentType" : 5126,
            "count" : 3231,
            "max" : [
                3.4281249046325684,
                2,
                0
            ],
            "min" : [
                -3,
                -2,
                -3.1500000953674316
            ],
            "type" : "VEC3"
        },
        {
            "bufferView" : 4,
            "componentType" : 5126,
            "count" : 3231,
            "type" : "VEC3"
        },
        {
            "bufferView" : 5,
            "componentType" : 5126,
            "count" : 3231,
            "max" : [
                3.4281249046325684,
                2,
                0
            ],
            "min" : [
                -3,
                -2,
                -3.1500000953674316
            ],
            "type" : "VEC3"
        },
        {
            "bufferView" : 6,
            "componentType" : 5126,
            "count" : 3231,
            "type" : "VEC3"
        },
        {
            "bufferView" : 7,
            "componentType" : 5126,
            "count" : 3231,
            "max" : [
                3.4281249046325684,
                2,
                0
            ],
            "min" : [
                -3,
                -2,
                -3.1500000953674316
            ],
            "type" : "VEC3"
        },
        {
            "bufferView" : 8,
            "componentType" : 5126,
            "count" : 3231,
            "type" : "VEC3"
        }
    ],
    "bufferViews" : [
        {
            "buffer" : 0,
            "byteLength" : 38772,
            "byteOffset" : 0
        },
        {
            "buffer" : 0,
            "byteLength" : 38772,
            "byteOffset" : 38772
        },
        {
            "buffer" : 0,
            "byteLength" : 37800,
            "byteOffset" : 77544
        },
        {
            "buffer" : 0,
            "byteLength" : 38772,
            "byteOffset" : 115344
        },
        {
            "buffer" : 0,
            "byteLength" : 38772,
            "byteOffset" : 154116
        },
        {
            "buffer" : 0,
            "byteLength" : 38772,
            "byteOffset" : 192888
        },
        {
            "buffer" : 0,
            "byteLength" : 38772,
            "byteOffset" : 231660
        },
        {
            "buffer" : 0,
            "byteLength" : 38772,
            "byteOffset" : 270432
        },
        {
            "buffer" : 0,
            "byteLength" : 38772,
            "byteOffset" : 309204
        }
    ],
    "buffers" : [
        {
            "byteLength" : 347976,
            "uri" : "data:application/octet-stream;base64,"
        }
    ]
}
